<svg aria-roledescription="mindmap" viewBox="5.000000953674316 5.000000953674316 987.0067138671875 479.9302062988281" style="max-width: 100%;" xmlns="http://www.w3.org/2000/svg" width="100%" id="graph-div" height="100%" xmlns:xlink="http://www.w3.org/1999/xlink"><style>@import url("https://cdnjs.cloudflare.com/ajax/libs/font-awesome/6.2.1/css/all.min.css");'</style><style>#graph-div{font-family:"trebuchet ms",verdana,arial,sans-serif;font-size:16px;fill:#ccc;}#graph-div .error-icon{fill:#a44141;}#graph-div .error-text{fill:#ddd;stroke:#ddd;}#graph-div .edge-thickness-normal{stroke-width:2px;}#graph-div .edge-thickness-thick{stroke-width:3.5px;}#graph-div .edge-pattern-solid{stroke-dasharray:0;}#graph-div .edge-pattern-dashed{stroke-dasharray:3;}#graph-div .edge-pattern-dotted{stroke-dasharray:2;}#graph-div .marker{fill:lightgrey;stroke:lightgrey;}#graph-div .marker.cross{stroke:lightgrey;}#graph-div svg{font-family:"trebuchet ms",verdana,arial,sans-serif;font-size:16px;}#graph-div .edge{stroke-width:3;}#graph-div .section--1 rect,#graph-div .section--1 path,#graph-div .section--1 circle,#graph-div .section--1 polygon,#graph-div .section--1 path{fill:#1f2020;}#graph-div .section--1 text{fill:lightgrey;}#graph-div .node-icon--1{font-size:40px;color:lightgrey;}#graph-div .section-edge--1{stroke:#1f2020;}#graph-div .edge-depth--1{stroke-width:17;}#graph-div .section--1 line{stroke:#e0dfdf;stroke-width:3;}#graph-div .disabled,#graph-div .disabled circle,#graph-div .disabled text{fill:lightgray;}#graph-div .disabled text{fill:#efefef;}#graph-div .section-0 rect,#graph-div .section-0 path,#graph-div .section-0 circle,#graph-div .section-0 polygon,#graph-div .section-0 path{fill:#0b0000;}#graph-div .section-0 text{fill:lightgrey;}#graph-div .node-icon-0{font-size:40px;color:lightgrey;}#graph-div .section-edge-0{stroke:#0b0000;}#graph-div .edge-depth-0{stroke-width:14;}#graph-div .section-0 line{stroke:#f4ffff;stroke-width:3;}#graph-div .disabled,#graph-div .disabled circle,#graph-div .disabled text{fill:lightgray;}#graph-div .disabled text{fill:#efefef;}#graph-div .section-1 rect,#graph-div .section-1 path,#graph-div .section-1 circle,#graph-div .section-1 polygon,#graph-div .section-1 path{fill:#4d1037;}#graph-div .section-1 text{fill:lightgrey;}#graph-div .node-icon-1{font-size:40px;color:lightgrey;}#graph-div .section-edge-1{stroke:#4d1037;}#graph-div .edge-depth-1{stroke-width:11;}#graph-div .section-1 line{stroke:#b2efc8;stroke-width:3;}#graph-div .disabled,#graph-div .disabled circle,#graph-div .disabled text{fill:lightgray;}#graph-div .disabled text{fill:#efefef;}#graph-div .section-2 rect,#graph-div .section-2 path,#graph-div .section-2 circle,#graph-div .section-2 polygon,#graph-div .section-2 path{fill:#3f5258;}#graph-div .section-2 text{fill:lightgrey;}#graph-div .node-icon-2{font-size:40px;color:lightgrey;}#graph-div .section-edge-2{stroke:#3f5258;}#graph-div .edge-depth-2{stroke-width:8;}#graph-div .section-2 line{stroke:#c0ada7;stroke-width:3;}#graph-div .disabled,#graph-div .disabled circle,#graph-div .disabled text{fill:lightgray;}#graph-div .disabled text{fill:#efefef;}#graph-div .section-3 rect,#graph-div .section-3 path,#graph-div .section-3 circle,#graph-div .section-3 polygon,#graph-div .section-3 path{fill:#4f2f1b;}#graph-div .section-3 text{fill:lightgrey;}#graph-div .node-icon-3{font-size:40px;color:lightgrey;}#graph-div .section-edge-3{stroke:#4f2f1b;}#graph-div .edge-depth-3{stroke-width:5;}#graph-div .section-3 line{stroke:#b0d0e4;stroke-width:3;}#graph-div .disabled,#graph-div .disabled circle,#graph-div .disabled text{fill:lightgray;}#graph-div .disabled text{fill:#efefef;}#graph-div .section-4 rect,#graph-div .section-4 path,#graph-div .section-4 circle,#graph-div .section-4 polygon,#graph-div .section-4 path{fill:#6e0a0a;}#graph-div .section-4 text{fill:lightgrey;}#graph-div .node-icon-4{font-size:40px;color:lightgrey;}#graph-div .section-edge-4{stroke:#6e0a0a;}#graph-div .edge-depth-4{stroke-width:2;}#graph-div .section-4 line{stroke:#91f5f5;stroke-width:3;}#graph-div .disabled,#graph-div .disabled circle,#graph-div .disabled text{fill:lightgray;}#graph-div .disabled text{fill:#efefef;}#graph-div .section-5 rect,#graph-div .section-5 path,#graph-div .section-5 circle,#graph-div .section-5 polygon,#graph-div .section-5 path{fill:#3b0048;}#graph-div .section-5 text{fill:lightgrey;}#graph-div .node-icon-5{font-size:40px;color:lightgrey;}#graph-div .section-edge-5{stroke:#3b0048;}#graph-div .edge-depth-5{stroke-width:-1;}#graph-div .section-5 line{stroke:#c4ffb7;stroke-width:3;}#graph-div .disabled,#graph-div .disabled circle,#graph-div .disabled text{fill:lightgray;}#graph-div .disabled text{fill:#efefef;}#graph-div .section-6 rect,#graph-div .section-6 path,#graph-div .section-6 circle,#graph-div .section-6 polygon,#graph-div .section-6 path{fill:#995a01;}#graph-div .section-6 text{fill:lightgrey;}#graph-div .node-icon-6{font-size:40px;color:lightgrey;}#graph-div .section-edge-6{stroke:#995a01;}#graph-div .edge-depth-6{stroke-width:-4;}#graph-div .section-6 line{stroke:#66a5fe;stroke-width:3;}#graph-div .disabled,#graph-div .disabled circle,#graph-div .disabled text{fill:lightgray;}#graph-div .disabled text{fill:#efefef;}#graph-div .section-7 rect,#graph-div .section-7 path,#graph-div .section-7 circle,#graph-div .section-7 polygon,#graph-div .section-7 path{fill:#154706;}#graph-div .section-7 text{fill:lightgrey;}#graph-div .node-icon-7{font-size:40px;color:lightgrey;}#graph-div .section-edge-7{stroke:#154706;}#graph-div .edge-depth-7{stroke-width:-7;}#graph-div .section-7 line{stroke:#eab8f9;stroke-width:3;}#graph-div .disabled,#graph-div .disabled circle,#graph-div .disabled text{fill:lightgray;}#graph-div .disabled text{fill:#efefef;}#graph-div .section-8 rect,#graph-div .section-8 path,#graph-div .section-8 circle,#graph-div .section-8 polygon,#graph-div .section-8 path{fill:#161722;}#graph-div .section-8 text{fill:lightgrey;}#graph-div .node-icon-8{font-size:40px;color:lightgrey;}#graph-div .section-edge-8{stroke:#161722;}#graph-div .edge-depth-8{stroke-width:-10;}#graph-div .section-8 line{stroke:#e9e8dd;stroke-width:3;}#graph-div .disabled,#graph-div .disabled circle,#graph-div .disabled text{fill:lightgray;}#graph-div .disabled text{fill:#efefef;}#graph-div .section-9 rect,#graph-div .section-9 path,#graph-div .section-9 circle,#graph-div .section-9 polygon,#graph-div .section-9 path{fill:#00296f;}#graph-div .section-9 text{fill:lightgrey;}#graph-div .node-icon-9{font-size:40px;color:lightgrey;}#graph-div .section-edge-9{stroke:#00296f;}#graph-div .edge-depth-9{stroke-width:-13;}#graph-div .section-9 line{stroke:#ffd690;stroke-width:3;}#graph-div .disabled,#graph-div .disabled circle,#graph-div .disabled text{fill:lightgray;}#graph-div .disabled text{fill:#efefef;}#graph-div .section-10 rect,#graph-div .section-10 path,#graph-div .section-10 circle,#graph-div .section-10 polygon,#graph-div .section-10 path{fill:#01629c;}#graph-div .section-10 text{fill:lightgrey;}#graph-div .node-icon-10{font-size:40px;color:lightgrey;}#graph-div .section-edge-10{stroke:#01629c;}#graph-div .edge-depth-10{stroke-width:-16;}#graph-div .section-10 line{stroke:#fe9d63;stroke-width:3;}#graph-div .disabled,#graph-div .disabled circle,#graph-div .disabled text{fill:lightgray;}#graph-div .disabled text{fill:#efefef;}#graph-div .section-root rect,#graph-div .section-root path,#graph-div .section-root circle,#graph-div .section-root polygon{fill:hsl(180, 1.5873015873%, 48.3529411765%);}#graph-div .section-root text{fill:undefined;}#graph-div .icon-container{height:100%;display:flex;justify-content:center;align-items:center;}#graph-div .edge{fill:none;}#graph-div :root{--mermaid-font-family:"trebuchet ms",verdana,arial,sans-serif;}</style><g></g><g></g><g class="mindmap-edges"><path class="edge section-edge--1 edge-depth-0" d="M 518.3855214944178,231.333179680237 L 494.0614777652065,255.60848205377226 L469.7374340359953,279.88378442730755"></path><path class="edge section-edge-0 edge-depth-1" d="M 657.8503146855901,148.4188431314394 L 667.7255970944308,116.26110072169016 L677.6008795032715,84.10335831194092"></path><path class="edge section-edge-0 edge-depth-1" d="M 667.7474081021833,167.28525482884226 L 711.5355125379203,181.14785189448187 L755.3236169736574,195.0104489601215"></path><path class="edge section-edge-0 edge-depth-1" d="M 667.7551207691189,158.25509687388765 L 717.383481483295,142.63679181110402 L767.0118421974711,127.01848674832038"></path><path class="edge section-edge-0 edge-depth-1" d="M 638.7043815280498,159.99079823678116 L 593.983416717126,151.5967236225728 L549.2624519062023,143.20264900836443"></path><path class="edge section-edge-0 edge-depth-0" d="M 542.5994644172076,214.40243551251245 L 591.2248442358665,191.74758969686096 L639.8502240545254,169.09274388120946"></path><path class="edge section-edge-1 edge-depth-1" d="M 526.5108875913629,338.5721638921954 L 421.19662316431504,332.37137915000403 L315.8823587372672,326.17059440781264"></path><path class="edge section-edge-1 edge-depth-1" d="M 544.3488096310942,354.17789330800633 L 551.9716947209508,393.36979273970724 L559.5945798108073,432.561692171408"></path><path class="edge section-edge-1 edge-depth-1" d="M 556.3686241296307,337.5893144424364 L 659.9713642405309,324.61080226331046 L763.5741043514311,311.63229008418455"></path><path class="edge section-edge-1 edge-depth-1" d="M 527.3184364794877,344.3843133611672 L 442.39156028788614,373.94213375207164 L357.4646840962845,403.499954142976"></path><path class="edge section-edge-1 edge-depth-1" d="M 556.114140021583,342.76847438846016 L 656.8299080201937,365.5884709163845 L757.5456760188043,388.4084674443087"></path><path class="edge section-edge-1 edge-depth-0" d="M 530.5712518620294,235.65498945450304 L 535.2438550286087,280.0955204511483 L539.9164581951879,324.5360514477935"></path><path class="edge section-edge-2 edge-depth-1" d="M 671.8953237846567,257.8829422974313 L 764.5655707538274,255.88455515692982 L857.2358177229978,253.88616801642831"></path><path class="edge section-edge-2 edge-depth-0" d="M 543.3977200422572,224.95444685635402 L 592.9507828710055,239.47177771718606 L642.5038456997537,253.9891085780181"></path><path class="edge section-edge-3 edge-depth-1" d="M 369.9459845193687,156.32571143328056 L 362.3078551191262,187.88106393517373 L354.6697257188837,219.4364164370669"></path><path class="edge section-edge-3 edge-depth-1" d="M 358.87126222249424,145.1721875257088 L 255.299116760716,169.46628497824528 L151.7269712989378,193.76038243078176"></path><path class="edge section-edge-3 edge-depth-1" d="M 358.6180776889447,139.67915932905882 L 247.3841516542828,124.19914742647629 L136.15022561962087,108.71913552389375"></path><path class="edge section-edge-3 edge-depth-1" d="M 364.21136484428837,129.9489772760501 L 334.5675916371506,92.1955869034862 L304.92381843001283,54.4421965309223"></path><path class="edge section-edge-3 edge-depth-1" d="M 386.43368228054544,134.1922622016781 L 440.595854091083,102.61782442070867 L494.7580259016206,71.04338663973924"></path><path class="edge section-edge-3 edge-depth-0" d="M 515.6288022275685,213.94477105244408 L 451.2388275751574,181.2419744461608 L386.84885292274635,148.53917783987754"></path></g><g class="mindmap-nodes"><g transform="translate(497.0756714981213, 201.8927762297584)" class="mindmap-node section-root"><g transform="translate(31.92708396911621, 18.84444465637207)"><circle r="31.92708396911621" class="node-bkg node-circle" id="node-0"></circle></g><g transform="translate(31.92708396911621, 5)"><text text-anchor="middle" dominant-baseline="middle" alignment-baseline="middle" dy="1em"><tspan dy="1em" x="0">Bluing</tspan></text></g></g><g transform="translate(427.187487508244, 271.63529856504204)" class="mindmap-node section-root"><g><path d="M0 32.68888931274414 v-27.688889312744138 q0,-5 5,-5 h53.86542510986328 q5,0 5,5 v32.68888931274414 H0 Z" class="node-bkg node-no-border" id="node-1"></path><line y2="37.68888931274414" x2="63.86542510986328" y1="37.68888931274414" x1="0" class="node-line--1"></line></g><g transform="translate(31.93271255493164, 5)"><text text-anchor="middle" dominant-baseline="middle" alignment-baseline="middle" dy="1em"><tspan dy="1em" x="0">Plugin</tspan></text></g></g><g transform="translate(627.4399883481234, 143.91351385121936)" class="mindmap-node section-0"><g><path d="M0 32.68888931274414 v-27.688889312744138 q0,-5 5,-5 h42.01388931274414 q5,0 5,5 v32.68888931274414 H0 Z" class="node-bkg node-no-border" id="node-2"></path><line y2="37.68888931274414" x2="52.01388931274414" y1="37.68888931274414" x1="0" class="node-line-0"></line></g><g transform="translate(26.00694465637207, 5)"><text text-anchor="middle" dominant-baseline="middle" alignment-baseline="middle" dy="1em"><tspan dy="1em" x="0">欺骗</tspan></text></g></g><g transform="translate(638.844131637247, 50.9197982794168)" class="mindmap-node section-0"><g><path d="M0 32.68888931274414 v-27.688889312744138 q0,-5 5,-5 h76.32025909423828 q5,0 5,5 v32.68888931274414 H0 Z" class="node-bkg node-no-border" id="node-3"></path><line y2="37.68888931274414" x2="86.32025909423828" y1="37.68888931274414" x1="0" class="node-line-0"></line></g><g transform="translate(43.16012954711914, 5)"><text text-anchor="middle" dominant-baseline="middle" alignment-baseline="middle" dy="1em"><tspan dy="1em" x="0">BD_ADDR</tspan></text></g></g><g transform="translate(727.2907676389722, 180.69330062500023)" class="mindmap-node section-0"><g><path d="M0 32.68888931274414 v-27.688889312744138 q0,-5 5,-5 h74.6666488647461 q5,0 5,5 v32.68888931274414 H0 Z" class="node-bkg node-no-border" id="node-4"></path><line y2="37.68888931274414" x2="84.6666488647461" y1="37.68888931274414" x1="0" class="node-line-0"></line></g><g transform="translate(42.33332443237305, 5)"><text text-anchor="middle" dominant-baseline="middle" alignment-baseline="middle" dy="1em"><tspan dy="1em" x="0">设备类型</tspan></text></g></g><g transform="translate(738.9867055297215, 103.67118045824452)" class="mindmap-node section-0"><g><path d="M0 32.68888931274414 v-27.688889312744138 q0,-5 5,-5 h74.6666488647461 q5,0 5,5 v32.68888931274414 H0 Z" class="node-bkg node-no-border" id="node-5"></path><line y2="37.68888931274414" x2="84.6666488647461" y1="37.68888931274414" x1="0" class="node-line-0"></line></g><g transform="translate(42.33332443237305, 5)"><text text-anchor="middle" dominant-baseline="middle" alignment-baseline="middle" dy="1em"><tspan dy="1em" x="0">主机名称</tspan></text></g></g><g transform="translate(483.96434317878004, 121.59104408118208)" class="mindmap-node section-0"><g><path d="M0 32.68888931274414 v-27.688889312744138 q0,-5 5,-5 h91.11111450195312 q5,0 5,5 v32.68888931274414 H0 Z" class="node-bkg node-no-border" id="node-6"></path><line y2="37.68888931274414" x2="101.11111450195312" y1="37.68888931274414" x1="0" class="node-line-0"></line></g><g transform="translate(50.55555725097656, 5)"><text text-anchor="middle" dominant-baseline="middle" alignment-baseline="middle" dy="1em"><tspan dy="1em" x="0">适配器别名</tspan></text></g></g><g transform="translate(467.43553137220636, 320.60937535979406)" class="mindmap-node section-1"><g><path d="M0 32.68888931274414 v-27.688889312744138 q0,-5 5,-5 h138.09884643554688 q5,0 5,5 v32.68888931274414 H0 Z" class="node-bkg node-no-border" id="node-7"></path><line y2="37.68888931274414" x2="148.09884643554688" y1="37.68888931274414" x1="0" class="node-line-1"></line></g><g transform="translate(74.04942321777344, 5)"><text text-anchor="middle" dominant-baseline="middle" alignment-baseline="middle" dy="1em"><tspan dy="1em" x="0">Basic   Rate   system</tspan></text></g></g><g transform="translate(204.37231151404103, 297.64449248306073)" class="mindmap-node section-1"><g><path d="M0 50.2888916015625 v-45.2888916015625 q0,-5 5,-5 h183.07196044921875 q5,0 5,5 v50.2888916015625 H0 Z" class="node-bkg node-no-border" id="node-8"></path><line y2="55.2888916015625" x2="193.07196044921875" y1="55.2888916015625" x1="0" class="node-line-1"></line></g><g transform="translate(96.53598022460938, 5)"><text text-anchor="middle" dominant-baseline="middle" alignment-baseline="middle" dy="1em"><tspan dy="1em" x="0">发现附近其他的   BR/EDR</tspan><tspan dy="1.1em" x="0">控制器</tspan></text></g></g><g transform="translate(463.6042630989921, 419.641319662467)" class="mindmap-node section-1"><g><path d="M0 50.2888916015625 v-45.2888916015625 q0,-5 5,-5 h187.70834350585938 q5,0 5,5 v50.2888916015625 H0 Z" class="node-bkg node-no-border" id="node-9"></path><line y2="55.2888916015625" x2="197.70834350585938" y1="55.2888916015625" x1="0" class="node-line-1"></line></g><g transform="translate(98.85417175292969, 5)"><text text-anchor="middle" dominant-baseline="middle" alignment-baseline="middle" dy="1em"><tspan dy="1em" x="0">检索远端   BD/EDR   设备的</tspan><tspan dy="1.1em" x="0">SDP   数据库信息</tspan></text></g></g><g transform="translate(668.8875147968437, 290.92333985408277)" class="mindmap-node section-1"><g><path d="M0 32.68888931274414 v-27.688889312744138 q0,-5 5,-5 h209.14051818847656 q5,0 5,5 v32.68888931274414 H0 Z" class="node-bkg node-no-border" id="node-10"></path><line y2="37.68888931274414" x2="219.14051818847656" y1="37.68888931274414" x1="0" class="node-line-1"></line></g><g transform="translate(109.57025909423828, 5)"><text text-anchor="middle" dominant-baseline="middle" alignment-baseline="middle" dy="1em"><tspan dy="1em" x="0">嗅探并推测附近的   BD_ADDR</tspan></text></g></g><g transform="translate(244.6957337348158, 380.78600168719584)" class="mindmap-node section-1"><g><path d="M0 50.2888916015625 v-45.2888916015625 q0,-5 5,-5 h187.20486450195312 q5,0 5,5 v50.2888916015625 H0 Z" class="node-bkg node-no-border" id="node-11"></path><line y2="55.2888916015625" x2="197.20486450195312" y1="55.2888916015625" x1="0" class="node-line-1"></line></g><g transform="translate(98.60243225097656, 5)"><text text-anchor="middle" dominant-baseline="middle" alignment-baseline="middle" dy="1em"><tspan dy="1em" x="0">读取远端   BR/EDR   设备的</tspan><tspan dy="1.1em" x="0">LMP   特性</tspan></text></g></g><g transform="translate(683.6388812257982, 364.07867601582154)" class="mindmap-node section-1"><g><path d="M0 50.2888916015625 v-45.2888916015625 q0,-5 5,-5 h167.07196044921875 q5,0 5,5 v50.2888916015625 H0 Z" class="node-bkg node-no-border" id="node-12"></path><line y2="55.2888916015625" x2="177.07196044921875" y1="55.2888916015625" x1="0" class="node-line-1"></line></g><g transform="translate(88.53598022460938, 5)"><text text-anchor="middle" dominant-baseline="middle" alignment-baseline="middle" dy="1em"><tspan dy="1em" x="0">打印附近其他   BR/EDR</tspan><tspan dy="1.1em" x="0">设备进来的连接</tspan></text></g></g><g transform="translate(618.6522816492851, 239.3618898918696)" class="mindmap-node section-2"><g><path d="M0 32.68888931274414 v-27.688889312744138 q0,-5 5,-5 h66.49305725097656 q5,0 5,5 v32.68888931274414 H0 Z" class="node-bkg node-no-border" id="node-13"></path><line y2="37.68888931274414" x2="76.49305725097656" y1="37.68888931274414" x1="0" class="node-line-2"></line></g><g transform="translate(38.24652862548828, 5)"><text text-anchor="middle" dominant-baseline="middle" alignment-baseline="middle" dy="1em"><tspan dy="1em" x="0">Android</tspan></text></g></g><g transform="translate(762.4580239819046, 234.71833110924592)" class="mindmap-node section-2"><g><path d="M0 32.68888931274414 v-27.688889312744138 q0,-5 5,-5 h209.54861450195312 q5,0 5,5 v32.68888931274414 H0 Z" class="node-bkg node-no-border" id="node-14"></path><line y2="37.68888931274414" x2="219.54861450195312" y1="37.68888931274414" x1="0" class="node-line-2"></line></g><g transform="translate(109.77430725097656, 5)"><text text-anchor="middle" dominant-baseline="middle" alignment-baseline="middle" dy="1em"><tspan dy="1em" x="0">收集正在产生的   btsnoop   log</tspan></text></g></g><g transform="translate(295.6442188359093, 122.90228334981907)" class="mindmap-node section-3"><g><path d="M0 32.68888931274414 v-27.688889312744138 q0,-5 5,-5 h145.66136169433594 q5,0 5,5 v32.68888931274414 H0 Z" class="node-bkg node-no-border" id="node-15"></path><line y2="37.68888931274414" x2="155.66136169433594" y1="37.68888931274414" x1="0" class="node-line-3"></line></g><g transform="translate(77.83068084716797, 5)"><text text-anchor="middle" dominant-baseline="middle" alignment-baseline="middle" dy="1em"><tspan dy="1em" x="0">Low   Energy   system</tspan></text></g></g><g transform="translate(250.75886017675714, 206.37095406337505)" class="mindmap-node section-3"><g><path d="M0 50.2888916015625 v-45.2888916015625 q0,-5 5,-5 h190.76390075683594 q5,0 5,5 v50.2888916015625 H0 Z" class="node-bkg node-no-border" id="node-16"></path><line y2="55.2888916015625" x2="200.76390075683594" y1="55.2888916015625" x1="0" class="node-line-3"></line></g><g transform="translate(100.38195037841797, 5)"><text text-anchor="middle" dominant-baseline="middle" alignment-baseline="middle" dy="1em"><tspan dy="1em" x="0">发现附近正在   advertising</tspan><tspan dy="1.1em" x="0">的设备</tspan></text></g></g><g transform="translate(46.50619974411643, 169.54139614951816)" class="mindmap-node section-3"><g><path d="M0 50.2888916015625 v-45.2888916015625 q0,-5 5,-5 h171.23426818847656 q5,0 5,5 v50.2888916015625 H0 Z" class="node-bkg node-no-border" id="node-17"></path><line y2="55.2888916015625" x2="181.23426818847656" y1="55.2888916015625" x1="0" class="node-line-3"></line></g><g transform="translate(90.61713409423828, 5)"><text text-anchor="middle" dominant-baseline="middle" alignment-baseline="middle" dy="1em"><tspan dy="1em" x="0">读取远端   LE   设备的   LL</tspan><tspan dy="1.1em" x="0">FeatureSet</tspan></text></g></g><g transform="translate(15, 79.00712104598017)" class="mindmap-node section-3"><g><path d="M0 50.2888916015625 v-45.2888916015625 q0,-5 5,-5 h202.58680725097656 q5,0 5,5 v50.2888916015625 H0 Z" class="node-bkg node-no-border" id="node-18"></path><line y2="55.2888916015625" x2="212.58680725097656" y1="55.2888916015625" x1="0" class="node-line-3"></line></g><g transform="translate(106.29340362548828, 5)"><text text-anchor="middle" dominant-baseline="middle" alignment-baseline="middle" dy="1em"><tspan dy="1em" x="0">请求远端   LE   设备的   pairing</tspan><tspan dy="1.1em" x="0">feature</tspan></text></g></g><g transform="translate(202.54227211661453, 15)" class="mindmap-node section-3"><g><path d="M0 50.2888916015625 v-45.2888916015625 q0,-5 5,-5 h176.23602294921875 q5,0 5,5 v50.2888916015625 H0 Z" class="node-bkg node-no-border" id="node-19"></path><line y2="55.2888916015625" x2="186.23602294921875" y1="55.2888916015625" x1="0" class="node-line-3"></line></g><g transform="translate(93.11801147460938, 5)"><text text-anchor="middle" dominant-baseline="middle" alignment-baseline="middle" dy="1em"><tspan dy="1em" x="0">发现远端   LE   设备   GATT</tspan><tspan dy="1.1em" x="0">Profile   的层次结构</tspan></text></g></g><g transform="translate(408.6629831206708, 35.84447503444494)" class="mindmap-node section-3"><g><path d="M0 50.2888916015625 v-45.2888916015625 q0,-5 5,-5 h188.10765075683594 q5,0 5,5 v50.2888916015625 H0 Z" class="node-bkg node-no-border" id="node-20"></path><line y2="55.2888916015625" x2="198.10765075683594" y1="55.2888916015625" x1="0" class="node-line-3"></line></g><g transform="translate(99.05382537841797, 5)"><text text-anchor="middle" dominant-baseline="middle" alignment-baseline="middle" dy="1em"><tspan dy="1em" x="0">嗅探   advertising   physical</tspan><tspan dy="1.1em" x="0">channel   PDU</tspan></text></g></g></g></svg>