<svg aria-roledescription="mindmap" viewBox="5.000000953674316 5.000000953674316 1072.186767578125 490.27886962890625" style="max-width: 100%;" xmlns="http://www.w3.org/2000/svg" width="100%" id="graph-div" height="100%" xmlns:xlink="http://www.w3.org/1999/xlink"><style>@import url("https://cdnjs.cloudflare.com/ajax/libs/font-awesome/6.2.1/css/all.min.css");'</style><style>#graph-div{font-family:"trebuchet ms",verdana,arial,sans-serif;font-size:16px;fill:#ccc;}#graph-div .error-icon{fill:#a44141;}#graph-div .error-text{fill:#ddd;stroke:#ddd;}#graph-div .edge-thickness-normal{stroke-width:2px;}#graph-div .edge-thickness-thick{stroke-width:3.5px;}#graph-div .edge-pattern-solid{stroke-dasharray:0;}#graph-div .edge-pattern-dashed{stroke-dasharray:3;}#graph-div .edge-pattern-dotted{stroke-dasharray:2;}#graph-div .marker{fill:lightgrey;stroke:lightgrey;}#graph-div .marker.cross{stroke:lightgrey;}#graph-div svg{font-family:"trebuchet ms",verdana,arial,sans-serif;font-size:16px;}#graph-div .edge{stroke-width:3;}#graph-div .section--1 rect,#graph-div .section--1 path,#graph-div .section--1 circle,#graph-div .section--1 polygon,#graph-div .section--1 path{fill:#1f2020;}#graph-div .section--1 text{fill:lightgrey;}#graph-div .node-icon--1{font-size:40px;color:lightgrey;}#graph-div .section-edge--1{stroke:#1f2020;}#graph-div .edge-depth--1{stroke-width:17;}#graph-div .section--1 line{stroke:#e0dfdf;stroke-width:3;}#graph-div .disabled,#graph-div .disabled circle,#graph-div .disabled text{fill:lightgray;}#graph-div .disabled text{fill:#efefef;}#graph-div .section-0 rect,#graph-div .section-0 path,#graph-div .section-0 circle,#graph-div .section-0 polygon,#graph-div .section-0 path{fill:#0b0000;}#graph-div .section-0 text{fill:lightgrey;}#graph-div .node-icon-0{font-size:40px;color:lightgrey;}#graph-div .section-edge-0{stroke:#0b0000;}#graph-div .edge-depth-0{stroke-width:14;}#graph-div .section-0 line{stroke:#f4ffff;stroke-width:3;}#graph-div .disabled,#graph-div .disabled circle,#graph-div .disabled text{fill:lightgray;}#graph-div .disabled text{fill:#efefef;}#graph-div .section-1 rect,#graph-div .section-1 path,#graph-div .section-1 circle,#graph-div .section-1 polygon,#graph-div .section-1 path{fill:#4d1037;}#graph-div .section-1 text{fill:lightgrey;}#graph-div .node-icon-1{font-size:40px;color:lightgrey;}#graph-div .section-edge-1{stroke:#4d1037;}#graph-div .edge-depth-1{stroke-width:11;}#graph-div .section-1 line{stroke:#b2efc8;stroke-width:3;}#graph-div .disabled,#graph-div .disabled circle,#graph-div .disabled text{fill:lightgray;}#graph-div .disabled text{fill:#efefef;}#graph-div .section-2 rect,#graph-div .section-2 path,#graph-div .section-2 circle,#graph-div .section-2 polygon,#graph-div .section-2 path{fill:#3f5258;}#graph-div .section-2 text{fill:lightgrey;}#graph-div .node-icon-2{font-size:40px;color:lightgrey;}#graph-div .section-edge-2{stroke:#3f5258;}#graph-div .edge-depth-2{stroke-width:8;}#graph-div .section-2 line{stroke:#c0ada7;stroke-width:3;}#graph-div .disabled,#graph-div .disabled circle,#graph-div .disabled text{fill:lightgray;}#graph-div .disabled text{fill:#efefef;}#graph-div .section-3 rect,#graph-div .section-3 path,#graph-div .section-3 circle,#graph-div .section-3 polygon,#graph-div .section-3 path{fill:#4f2f1b;}#graph-div .section-3 text{fill:lightgrey;}#graph-div .node-icon-3{font-size:40px;color:lightgrey;}#graph-div .section-edge-3{stroke:#4f2f1b;}#graph-div .edge-depth-3{stroke-width:5;}#graph-div .section-3 line{stroke:#b0d0e4;stroke-width:3;}#graph-div .disabled,#graph-div .disabled circle,#graph-div .disabled text{fill:lightgray;}#graph-div .disabled text{fill:#efefef;}#graph-div .section-4 rect,#graph-div .section-4 path,#graph-div .section-4 circle,#graph-div .section-4 polygon,#graph-div .section-4 path{fill:#6e0a0a;}#graph-div .section-4 text{fill:lightgrey;}#graph-div .node-icon-4{font-size:40px;color:lightgrey;}#graph-div .section-edge-4{stroke:#6e0a0a;}#graph-div .edge-depth-4{stroke-width:2;}#graph-div .section-4 line{stroke:#91f5f5;stroke-width:3;}#graph-div .disabled,#graph-div .disabled circle,#graph-div .disabled text{fill:lightgray;}#graph-div .disabled text{fill:#efefef;}#graph-div .section-5 rect,#graph-div .section-5 path,#graph-div .section-5 circle,#graph-div .section-5 polygon,#graph-div .section-5 path{fill:#3b0048;}#graph-div .section-5 text{fill:lightgrey;}#graph-div .node-icon-5{font-size:40px;color:lightgrey;}#graph-div .section-edge-5{stroke:#3b0048;}#graph-div .edge-depth-5{stroke-width:-1;}#graph-div .section-5 line{stroke:#c4ffb7;stroke-width:3;}#graph-div .disabled,#graph-div .disabled circle,#graph-div .disabled text{fill:lightgray;}#graph-div .disabled text{fill:#efefef;}#graph-div .section-6 rect,#graph-div .section-6 path,#graph-div .section-6 circle,#graph-div .section-6 polygon,#graph-div .section-6 path{fill:#995a01;}#graph-div .section-6 text{fill:lightgrey;}#graph-div .node-icon-6{font-size:40px;color:lightgrey;}#graph-div .section-edge-6{stroke:#995a01;}#graph-div .edge-depth-6{stroke-width:-4;}#graph-div .section-6 line{stroke:#66a5fe;stroke-width:3;}#graph-div .disabled,#graph-div .disabled circle,#graph-div .disabled text{fill:lightgray;}#graph-div .disabled text{fill:#efefef;}#graph-div .section-7 rect,#graph-div .section-7 path,#graph-div .section-7 circle,#graph-div .section-7 polygon,#graph-div .section-7 path{fill:#154706;}#graph-div .section-7 text{fill:lightgrey;}#graph-div .node-icon-7{font-size:40px;color:lightgrey;}#graph-div .section-edge-7{stroke:#154706;}#graph-div .edge-depth-7{stroke-width:-7;}#graph-div .section-7 line{stroke:#eab8f9;stroke-width:3;}#graph-div .disabled,#graph-div .disabled circle,#graph-div .disabled text{fill:lightgray;}#graph-div .disabled text{fill:#efefef;}#graph-div .section-8 rect,#graph-div .section-8 path,#graph-div .section-8 circle,#graph-div .section-8 polygon,#graph-div .section-8 path{fill:#161722;}#graph-div .section-8 text{fill:lightgrey;}#graph-div .node-icon-8{font-size:40px;color:lightgrey;}#graph-div .section-edge-8{stroke:#161722;}#graph-div .edge-depth-8{stroke-width:-10;}#graph-div .section-8 line{stroke:#e9e8dd;stroke-width:3;}#graph-div .disabled,#graph-div .disabled circle,#graph-div .disabled text{fill:lightgray;}#graph-div .disabled text{fill:#efefef;}#graph-div .section-9 rect,#graph-div .section-9 path,#graph-div .section-9 circle,#graph-div .section-9 polygon,#graph-div .section-9 path{fill:#00296f;}#graph-div .section-9 text{fill:lightgrey;}#graph-div .node-icon-9{font-size:40px;color:lightgrey;}#graph-div .section-edge-9{stroke:#00296f;}#graph-div .edge-depth-9{stroke-width:-13;}#graph-div .section-9 line{stroke:#ffd690;stroke-width:3;}#graph-div .disabled,#graph-div .disabled circle,#graph-div .disabled text{fill:lightgray;}#graph-div .disabled text{fill:#efefef;}#graph-div .section-10 rect,#graph-div .section-10 path,#graph-div .section-10 circle,#graph-div .section-10 polygon,#graph-div .section-10 path{fill:#01629c;}#graph-div .section-10 text{fill:lightgrey;}#graph-div .node-icon-10{font-size:40px;color:lightgrey;}#graph-div .section-edge-10{stroke:#01629c;}#graph-div .edge-depth-10{stroke-width:-16;}#graph-div .section-10 line{stroke:#fe9d63;stroke-width:3;}#graph-div .disabled,#graph-div .disabled circle,#graph-div .disabled text{fill:lightgray;}#graph-div .disabled text{fill:#efefef;}#graph-div .section-root rect,#graph-div .section-root path,#graph-div .section-root circle,#graph-div .section-root polygon{fill:hsl(180, 1.5873015873%, 48.3529411765%);}#graph-div .section-root text{fill:undefined;}#graph-div .icon-container{height:100%;display:flex;justify-content:center;align-items:center;}#graph-div .edge{fill:none;}#graph-div :root{--mermaid-font-family:"trebuchet ms",verdana,arial,sans-serif;}</style><g></g><g></g><g class="mindmap-edges"><path class="edge section-edge--1 edge-depth-0" d="M 501.2047973910242,235.9333204170163 L 524.9750850513834,210.41737166832232 L548.7453727117426,184.90142291962835"></path><path class="edge section-edge-0 edge-depth-1" d="M 454.11469183770134,119.58523244090006 L 458.9532066498767,84.14589969258527 L463.791721462052,48.706566944270506"></path><path class="edge section-edge-0 edge-depth-1" d="M 437.09038695143215,134.06738180673878 L 375.68982935926175,132.5115125843432 L314.28927176709135,130.9556433619476"></path><path class="edge section-edge-0 edge-depth-1" d="M 439.0484385723778,127.02892416356758 L 391.4688753509869,99.95505500581979 L343.88931212959596,72.881185848072"></path><path class="edge section-edge-0 edge-depth-1" d="M 465.8147781119175,128.40509177557746 L 515.028267355456,106.74609171344017 L564.2417565989946,85.08709165130287"></path><path class="edge section-edge-0 edge-depth-0" d="M 486.0774747104237,232.73258933726686 L 471.53292698544897,190.67803410926996 L456.98837926047423,148.62347888127312"></path><path class="edge section-edge-1 edge-depth-1" d="M 391.00787749041694,354.03294195803363 L 480.92189696148307,382.68047245790285 L570.8359164325492,411.32800295777207"></path><path class="edge section-edge-1 edge-depth-1" d="M 362.64447911779484,354.675385133724 L 269.8358264852363,388.94654594109215 L177.02717385267775,423.21770674846033"></path><path class="edge section-edge-1 edge-depth-1" d="M 377.350669466134,364.46588386157094 L 379.00676721034876,403.55688780900266 L380.66286495456353,442.6478917564344"></path><path class="edge section-edge-1 edge-depth-1" d="M 370.4958391463903,335.82969057117543 L 357.3285111366661,306.93395238165226 L344.1611831269419,278.0382141921291"></path><path class="edge section-edge-1 edge-depth-1" d="M 361.7740713282303,348.1579998118258 L 248.63713167633256,338.1530473808325 L135.50019202443482,328.1480949498392"></path><path class="edge section-edge-1 edge-depth-0" d="M 479.8178860984817,256.928741063727 L 433.84802079727444,298.1940201636002 L387.87815549606717,339.45929926347344"></path><path class="edge section-edge-2 edge-depth-1" d="M 350.0583486671045,193.01438922904742 L 267.06548548427565,192.72068664237412 L184.0726223014468,192.42698405570087"></path><path class="edge section-edge-2 edge-depth-0" d="M 477.188139195076,241.0115243369729 L 428.01926758954255,219.98809286576312 L378.8503959840091,198.9646613945534"></path><path class="edge section-edge-3 edge-depth-1" d="M 687.4976566578531,258.9089605876648 L 630.5935308539669,285.63450501253703 L573.6894050500806,312.3600494374092"></path><path class="edge section-edge-3 edge-depth-1" d="M 715.936126841118,254.5672193802461 L 821.8153272205584,269.0647094292928 L927.6945275999988,283.56219947833955"></path><path class="edge section-edge-3 edge-depth-1" d="M 715.7283608600235,249.3271895194618 L 829.744518141436,224.38867210047422 L943.7606754228484,199.45015468148665"></path><path class="edge section-edge-3 edge-depth-1" d="M 704.7184051867407,237.9815920543681 L 714.4974325769217,198.9291080445513 L724.2764599671027,159.87662403473456"></path><path class="edge section-edge-3 edge-depth-1" d="M 709.5889450970528,264.88179613076727 L 734.2481080192455,300.6489985606661 L758.9072709414381,336.4162009905649"></path><path class="edge section-edge-3 edge-depth-0" d="M 505.97490974328315,247.31007620800642 L 596.0275367550112,249.72052373766712 L686.0801637667391,252.13097126732788"></path></g><g class="mindmap-nodes"><g transform="translate(459.0531964700332, 228.0642688333694)" class="mindmap-node section-root"><g transform="translate(31.92708396911621, 18.84444465637207)"><circle r="31.92708396911621" class="node-bkg node-circle" id="node-0"></circle></g><g transform="translate(31.92708396911621, 5)"><text text-anchor="middle" dominant-baseline="middle" alignment-baseline="middle" dy="1em"><tspan dy="1em" x="0">Bluing</tspan></text></g></g><g transform="translate(527.0371771086858, 155.0815851905311)" class="mindmap-node section-root"><g><path d="M0 32.68888931274414 v-27.688889312744138 q0,-5 5,-5 h53.86542510986328 q5,0 5,5 v32.68888931274414 H0 Z" class="node-bkg node-no-border" id="node-1"></path><line y2="37.68888931274414" x2="63.86542510986328" y1="37.68888931274414" x1="0" class="node-line--1"></line></g><g transform="translate(31.93271255493164, 5)"><text text-anchor="middle" dominant-baseline="middle" alignment-baseline="middle" dy="1em"><tspan dy="1em" x="0">Plugin</tspan></text></g></g><g transform="translate(421.8616240993755, 115.60291007242643)" class="mindmap-node section-0"><g><path d="M0 32.68888931274414 v-27.688889312744138 q0,-5 5,-5 h50.447898864746094 q5,0 5,5 v32.68888931274414 H0 Z" class="node-bkg node-no-border" id="node-2"></path><line y2="37.68888931274414" x2="60.447898864746094" y1="37.68888931274414" x1="0" class="node-line-0"></line></g><g transform="translate(30.223949432373047, 5)"><text text-anchor="middle" dominant-baseline="middle" alignment-baseline="middle" dy="1em"><tspan dy="1em" x="0">Spoof</tspan></text></g></g><g transform="translate(417.8139160924677, 15)" class="mindmap-node section-0"><g><path d="M0 32.68888931274414 v-27.688889312744138 q0,-5 5,-5 h86.01384735107422 q5,0 5,5 v32.68888931274414 H0 Z" class="node-bkg node-no-border" id="node-3"></path><line y2="37.68888931274414" x2="96.01384735107422" y1="37.68888931274414" x1="0" class="node-line-0"></line></g><g transform="translate(48.00692367553711, 5)"><text text-anchor="middle" dominant-baseline="middle" alignment-baseline="middle" dy="1em"><tspan dy="1em" x="0">Host   name</tspan></text></g></g><g transform="translate(234.28892771607184, 111.73122578351581)" class="mindmap-node section-0"><g><path d="M0 32.68888931274414 v-27.688889312744138 q0,-5 5,-5 h120.01031494140625 q5,0 5,5 v32.68888931274414 H0 Z" class="node-bkg node-no-border" id="node-4"></path><line y2="37.68888931274414" x2="130.01031494140625" y1="37.68888931274414" x1="0" class="node-line-0"></line></g><g transform="translate(65.00515747070312, 5)"><text text-anchor="middle" dominant-baseline="middle" alignment-baseline="middle" dy="1em"><tspan dy="1em" x="0">Controller   alias</tspan></text></g></g><g transform="translate(267.0835576328717, 46.618310626469004)" class="mindmap-node section-0"><g><path d="M0 32.68888931274414 v-27.688889312744138 q0,-5 5,-5 h117.53723907470703 q5,0 5,5 v32.68888931274414 H0 Z" class="node-bkg node-no-border" id="node-5"></path><line y2="37.68888931274414" x2="127.53723907470703" y1="37.68888931274414" x1="0" class="node-line-0"></line></g><g transform="translate(63.768619537353516, 5)"><text text-anchor="middle" dominant-baseline="middle" alignment-baseline="middle" dy="1em"><tspan dy="1em" x="0">Class   of   Device</tspan></text></g></g><g transform="translate(534.8108316320444, 60.20038404170976)" class="mindmap-node section-0"><g><path d="M0 32.68888931274414 v-27.688889312744138 q0,-5 5,-5 h76.32025909423828 q5,0 5,5 v32.68888931274414 H0 Z" class="node-bkg node-no-border" id="node-6"></path><line y2="37.68888931274414" x2="86.32025909423828" y1="37.68888931274414" x1="0" class="node-line-0"></line></g><g transform="translate(43.16012954711914, 5)"><text text-anchor="middle" dominant-baseline="middle" alignment-baseline="middle" dy="1em"><tspan dy="1em" x="0">BD_ADDR</tspan></text></g></g><g transform="translate(302.66633793762605, 330.63488218108694)" class="mindmap-node section-1"><g><path d="M0 32.68888931274414 v-27.688889312744138 q0,-5 5,-5 h138.09884643554688 q5,0 5,5 v32.68888931274414 H0 Z" class="node-bkg node-no-border" id="node-7"></path><line y2="37.68888931274414" x2="148.09884643554688" y1="37.68888931274414" x1="0" class="node-line-1"></line></g><g transform="translate(74.04942321777344, 5)"><text text-anchor="middle" dominant-baseline="middle" alignment-baseline="middle" dy="1em"><tspan dy="1em" x="0">Basic   Rate   system</tspan></text></g></g><g transform="translate(495.98054894188306, 388.2371722775655)" class="mindmap-node section-1"><g><path d="M0 50.2888916015625 v-45.2888916015625 q0,-5 5,-5 h168.2949676513672 q5,0 5,5 v50.2888916015625 H0 Z" class="node-bkg node-no-border" id="node-8"></path><line y2="55.2888916015625" x2="178.2949676513672" y1="55.2888916015625" x1="0" class="node-line-1"></line></g><g transform="translate(89.1474838256836, 5)"><text text-anchor="middle" dominant-baseline="middle" alignment-baseline="middle" dy="1em"><tspan dy="1em" x="0">Discover   other   nearby</tspan><tspan dy="1.1em" x="0">BR/EDR   controllers</tspan></text></g></g><g transform="translate(59.23462411487776, 391.9693219142322)" class="mindmap-node section-1"><g><path d="M0 67.88888626098633 v-62.888886260986325 q0,-5 5,-5 h197.44253540039062 q5,0 5,5 v67.88888626098633 H0 Z" class="node-bkg node-no-border" id="node-9"></path><line y2="72.88888626098633" x2="207.44253540039062" y1="72.88888626098633" x1="0" class="node-line-1"></line></g><g transform="translate(103.72126770019531, 5)"><text text-anchor="middle" dominant-baseline="middle" alignment-baseline="middle" dy="1em"><tspan dy="1em" x="0">Retrieve   information   from</tspan><tspan dy="1.1em" x="0">the   SDP   database   of   a</tspan><tspan dy="1.1em" x="0">remote   BR/EDR   device</tspan></text></g></g><g transform="translate(288.7870234484035, 429.9900029797651)" class="mindmap-node section-1"><g><path d="M0 50.2888916015625 v-45.2888916015625 q0,-5 5,-5 h175.02149963378906 q5,0 5,5 v50.2888916015625 H0 Z" class="node-bkg node-no-border" id="node-10"></path><line y2="55.2888916015625" x2="185.02149963378906" y1="55.2888916015625" x1="0" class="node-line-1"></line></g><g transform="translate(92.51074981689453, 5)"><text text-anchor="middle" dominant-baseline="middle" alignment-baseline="middle" dy="1em"><tspan dy="1em" x="0">Read   LMP   features   of   a</tspan><tspan dy="1.1em" x="0">remote   BR/EDR   device</tspan></text></g></g><g transform="translate(247.09064466285463, 236.74413212506428)" class="mindmap-node section-1"><g><path d="M0 50.2888916015625 v-45.2888916015625 q0,-5 5,-5 h171.70123291015625 q5,0 5,5 v50.2888916015625 H0 Z" class="node-bkg node-no-border" id="node-11"></path><line y2="55.2888916015625" x2="181.70123291015625" y1="55.2888916015625" x1="0" class="node-line-1"></line></g><g transform="translate(90.85061645507812, 5)"><text text-anchor="middle" dominant-baseline="middle" alignment-baseline="middle" dy="1em"><tspan dy="1em" x="0">Sniff   and   guess   nearby</tspan><tspan dy="1.1em" x="0">BD_ADDRs</tspan></text></g></g><g transform="translate(15, 290.3823247937129)" class="mindmap-node section-1"><g><path d="M0 67.88888626098633 v-62.888886260986325 q0,-5 5,-5 h201.11700439453125 q5,0 5,5 v67.88888626098633 H0 Z" class="node-bkg node-no-border" id="node-12"></path><line y2="72.88888626098633" x2="211.11700439453125" y1="72.88888626098633" x1="0" class="node-line-1"></line></g><g transform="translate(105.55850219726562, 5)"><text text-anchor="middle" dominant-baseline="middle" alignment-baseline="middle" dy="1em"><tspan dy="1em" x="0">Print   incoming   connection</tspan><tspan dy="1.1em" x="0">from   other   nearby   BR/EDR</tspan><tspan dy="1.1em" x="0">devices</tspan></text></g></g><g transform="translate(326.8117261144474, 174.22302758541275)" class="mindmap-node section-2"><g><path d="M0 32.68888931274414 v-27.688889312744138 q0,-5 5,-5 h66.49305725097656 q5,0 5,5 v32.68888931274414 H0 Z" class="node-bkg node-no-border" id="node-13"></path><line y2="37.68888931274414" x2="76.49305725097656" y1="37.68888931274414" x1="0" class="node-line-2"></line></g><g transform="translate(38.24652862548828, 5)"><text text-anchor="middle" dominant-baseline="middle" alignment-baseline="middle" dy="1em"><tspan dy="1em" x="0">Android</tspan></text></g></g><g transform="translate(75.68729447568592, 164.7294552421822)" class="mindmap-node section-2"><g><path d="M0 50.2888916015625 v-45.2888916015625 q0,-5 5,-5 h176.77084350585938 q5,0 5,5 v50.2888916015625 H0 Z" class="node-bkg node-no-border" id="node-14"></path><line y2="55.2888916015625" x2="186.77084350585938" y1="55.2888916015625" x1="0" class="node-line-2"></line></g><g transform="translate(93.38542175292969, 5)"><text text-anchor="middle" dominant-baseline="middle" alignment-baseline="middle" dy="1em"><tspan dy="1em" x="0">Collect   the   btsnoop   log</tspan><tspan dy="1.1em" x="0">being   generated</tspan></text></g></g><g transform="translate(623.244112223705, 233.68788932922075)" class="mindmap-node section-3"><g><path d="M0 32.68888931274414 v-27.688889312744138 q0,-5 5,-5 h145.66136169433594 q5,0 5,5 v32.68888931274414 H0 Z" class="node-bkg node-no-border" id="node-15"></path><line y2="37.68888931274414" x2="155.66136169433594" y1="37.68888931274414" x1="0" class="node-line-3"></line></g><g transform="translate(77.83068084716797, 5)"><text text-anchor="middle" dominant-baseline="middle" alignment-baseline="middle" dy="1em"><tspan dy="1em" x="0">Low   Energy   system</tspan></text></g></g><g transform="translate(478.21990413510764, 291.0922302386999)" class="mindmap-node section-3"><g><path d="M0 50.2888916015625 v-45.2888916015625 q0,-5 5,-5 h153.78472900390625 q5,0 5,5 v50.2888916015625 H0 Z" class="node-bkg node-no-border" id="node-16"></path><line y2="55.2888916015625" x2="163.78472900390625" y1="55.2888916015625" x1="0" class="node-line-3"></line></g><g transform="translate(81.89236450195312, 5)"><text text-anchor="middle" dominant-baseline="middle" alignment-baseline="middle" dy="1em"><tspan dy="1em" x="0">Discover   advertising</tspan><tspan dy="1.1em" x="0">devices   nearby</tspan></text></g></g><g transform="translate(846.8966664239548, 257.9526390722116)" class="mindmap-node section-3"><g><path d="M0 50.2888916015625 v-45.2888916015625 q0,-5 5,-5 h181.31838989257812 q5,0 5,5 v50.2888916015625 H0 Z" class="node-bkg node-no-border" id="node-17"></path><line y2="55.2888916015625" x2="191.31838989257812" y1="55.2888916015625" x1="0" class="node-line-3"></line></g><g transform="translate(95.65919494628906, 5)"><text text-anchor="middle" dominant-baseline="middle" alignment-baseline="middle" dy="1em"><tspan dy="1em" x="0">Read   LL   FeatureSet   of   a</tspan><tspan dy="1.1em" x="0">remote   LE   device</tspan></text></g></g><g transform="translate(849.641782274499, 168.60056441457436)" class="mindmap-node section-3"><g><path d="M0 50.2888916015625 v-45.2888916015625 q0,-5 5,-5 h207.544921875 q5,0 5,5 v50.2888916015625 H0 Z" class="node-bkg node-no-border" id="node-18"></path><line y2="55.2888916015625" x2="217.544921875" y1="55.2888916015625" x1="0" class="node-line-3"></line></g><g transform="translate(108.7724609375, 5)"><text text-anchor="middle" dominant-baseline="middle" alignment-baseline="middle" dy="1em"><tspan dy="1em" x="0">Request   the   pairing   feature</tspan><tspan dy="1.1em" x="0">of   a   remote   LE   device</tspan></text></g></g><g transform="translate(628.6749396366814, 108.88143897301666)" class="mindmap-node section-3"><g><path d="M0 67.88888626098633 v-62.888886260986325 q0,-5 5,-5 h188.49026489257812 q5,0 5,5 v67.88888626098633 H0 Z" class="node-bkg node-no-border" id="node-19"></path><line y2="72.88888626098633" x2="198.49026489257812" y1="72.88888626098633" x1="0" class="node-line-3"></line></g><g transform="translate(99.24513244628906, 5)"><text text-anchor="middle" dominant-baseline="middle" alignment-baseline="middle" dy="1em"><tspan dy="1em" x="0">Discover   GATT   Profile</tspan><tspan dy="1.1em" x="0">hierarchy   of   a   remote   LE</tspan><tspan dy="1.1em" x="0">device</tspan></text></g></g><g transform="translate(667.9596157166415, 321.12121733495815)" class="mindmap-node section-3"><g><path d="M0 50.2888916015625 v-45.2888916015625 q0,-5 5,-5 h188.92361450195312 q5,0 5,5 v50.2888916015625 H0 Z" class="node-bkg node-no-border" id="node-20"></path><line y2="55.2888916015625" x2="198.92361450195312" y1="55.2888916015625" x1="0" class="node-line-3"></line></g><g transform="translate(99.46180725097656, 5)"><text text-anchor="middle" dominant-baseline="middle" alignment-baseline="middle" dy="1em"><tspan dy="1em" x="0">Sniff   advertising   physical</tspan><tspan dy="1.1em" x="0">channel   PDU</tspan></text></g></g></g></svg>